<svg xmlns="http://www.w3.org/2000/svg" viewBox="0 0 379.46 62.82"><defs><style>.cls-1{fill:#004e9e;}.cls-1,.cls-2{fill-rule:evenodd;}.cls-2{fill:#ec1622;}</style></defs><title>Fichier 2</title><g id="Calque_2" data-name="Calque 2"><g id="Layer_1" data-name="Layer 1"><path class="cls-1" d="M27,9.43a3,3,0,0,1,3.2,3.2c0,1.68-.34,3.37-.34,5.21,0,1.36.34,2.71.34,4.05,0,2.36-2.19,3.54-4.21,3.54-2.7,0-4-1.35-3.87-4,0-1.52.16-2.19-.85-3.37a6.07,6.07,0,0,0-4.38-1.52c-6.39,0-7.07,6.24-7.07,11.29,0,5.22.68,11,7.24,11a5.57,5.57,0,0,0,4-1.18c1.18-1.18,1.18-2.19,1.18-3.71a5.22,5.22,0,0,1,.68-3.2,3.58,3.58,0,0,1,3.2-1.35c3.2,0,4.71,2.36,4.71,5.39C30.82,42.44,23.58,46,16.68,46c-4.56,0-9.1-1.35-12.3-4.89C1.35,37.9,0,32.33,0,27.79c0-4.05.85-9.1,3-12.63A14.53,14.53,0,0,1,15,9.09a11.38,11.38,0,0,1,8.76,3.7A3,3,0,0,1,27,9.43Z"/><path class="cls-1" d="M43.62,25.09c0,2.36-2.19,3.37-4.38,3.37a4.48,4.48,0,0,1-4.54-4.38c0-5.22,7.07-6.06,10.94-6.06,2.7,0,6.07.17,8.25,1.51,3,1.68,3.38,4.72,3.38,7.75v9.6c0,.68-.17,2.36.83,2.36h1.19a2.57,2.57,0,0,1,2.52,2.86C61.81,45,59,46,56.59,46s-4.88-.84-5.73-3.21A13.07,13.07,0,0,1,42.11,46C37.56,46,33,43.45,33,38.4c0-12.13,15.83-5.9,15.83-12.63,0-1.86-1.85-2.87-3.53-2.87-.85,0-1.69.17-1.69,1.18v1Zm5.22,8.59c-1.52,1.52-7.41.84-7.41,3.54,0,1.68,1.52,2.35,2.86,2.35,3,0,4.55-1.84,4.55-4.88v-1Z"/><path class="cls-1" d="M68.55,28.29c0-.67.16-3.53-.84-3.53-.51,0-1,.33-1.69.33-1.68,0-2.36-1.35-2.36-2.86,0-1.86.85-3.54,2.53-3.54,1.52.17,2.52.51,3.54.51a23.27,23.27,0,0,0,3.37-.51c1.51,0,1.68,1,1.68,2.19v3.88c.84-4.21,3.88-6.57,8.25-6.57a6.58,6.58,0,0,1,6.74,6.4c0,2.52-1.68,5.05-4.38,5.05a3.32,3.32,0,0,1-3.54-3.37,4.48,4.48,0,0,1,.51-2c-5.73-.34-5.9,7.41-5.9,11.45,0,.68-.16,3.54,1,3.54.51,0,1-.34,1.69-.34,1.68,0,2.19,1.35,2.19,2.87,0,2-.85,3.53-2.53,3.53-2.69,0-4.72-.5-6.9-.5-1.86,0-3.88.5-5.73.5-1.68,0-2.53-1.51-2.53-3.53,0-1.52.68-2.87,2.36-2.87.67,0,1.18.34,1.69.34,1,0,.84-2.86.84-3.54V28.29Z"/><path class="cls-1" d="M96.5,28.29c0-.67.17-3.53-.84-3.53-.66,0-1.17.33-1.68.33-1.68,0-2.36-1.35-2.36-2.86,0-1.86.84-3.54,2.53-3.54,1.51.17,2.52.51,3.54.51a22.94,22.94,0,0,0,3.36-.51c1.52,0,1.52,1,1.52,2.19v3.88A8.06,8.06,0,0,1,111,18.19a6.58,6.58,0,0,1,6.74,6.4c0,2.52-1.69,5.05-4.38,5.05a3.46,3.46,0,0,1-3.71-3.37,4.92,4.92,0,0,1,.67-2c-5.72-.34-5.88,7.41-5.88,11.45,0,.68-.18,3.54,1,3.54.51,0,1-.34,1.69-.34,1.69,0,2.19,1.35,2.19,2.87,0,2-.84,3.53-2.53,3.53-2.69,0-4.72-.5-6.9-.5-1.86,0-3.88.5-5.73.5-1.69,0-2.53-1.51-2.53-3.53,0-1.52.68-2.87,2.36-2.87.51,0,1,.34,1.68.34,1,0,.84-2.86.84-3.54V28.29Z"/><path class="cls-1" d="M129.18,33.34c-1,0-2.36-.33-2.36,1.18a5.1,5.1,0,0,0,5.23,5c4.37,0,4-4,8.08-4a3.13,3.13,0,0,1,3.36,3.2c0,2.18-1.68,4-3.36,5.21a15.78,15.78,0,0,1-8.26,2c-8.25,0-13.47-5.56-13.47-13.81,0-8.09,5.06-14.15,13.3-14.15,3,0,6.4.67,8.6,2.69a12,12,0,0,1,3.7,8.93c0,3-.33,3.7-3.37,3.7Zm4.72-5.55c.84,0,1.68.17,1.68-.85a3.33,3.33,0,0,0-1-2.18,4.12,4.12,0,0,0-2.7-1,4.45,4.45,0,0,0-3.53,1.35c-.51.51-1.35,1.35-1.35,2,0,.85,1.68.68,2.19.68Z"/><path class="cls-1" d="M157.64,35.7c0,.68-.17,3.54,1,3.54.51,0,1-.34,1.69-.34,1.68,0,2.19,1.35,2.19,2.87,0,2-.84,3.53-3,3.53s-4.21-.5-6.23-.5-3.88.5-5.56.5c-2,0-2.87-1.51-2.87-3.53,0-1.52.51-2.87,2.2-2.87.67,0,1.17.34,1.68.34,1.18,0,1-2.86,1-3.54V26.44c0-1.85,0-2-1.69-2-2,0-3.2-.51-3.2-2.7s.85-3,2.87-3c1.51,0,2,.17,2-1.69.17-5.55,5.05-7.91,10.1-7.91a11.27,11.27,0,0,1,5.22,1.18,5.21,5.21,0,0,1,3,4.54,3.71,3.71,0,0,1-3.87,3.88,3.21,3.21,0,0,1-3.37-3,4,4,0,0,1,.34-1.35,1.9,1.9,0,0,0-1-.16c-1.85,0-2.53,1.18-2.53,2.85s.17,1.69,1.86,1.69c2,0,3.53.17,3.53,2.7,0,2.35-1,3-3.2,3-2,0-2.19-.17-2.19,2V35.7Z"/><path class="cls-1" d="M190.49,31.66c0,8.42-4.21,14.32-13.14,14.32-8.76,0-13.48-5.39-13.48-14s4.72-14,13.48-14c8.25,0,13.14,5.39,13.14,13.64Zm-13.14-7.24c-4.21,0-5.22,4.2-5.22,7.57,0,3,1,7.58,4.72,7.58,1.84,0,3.36-.5,4.2-2.18a12.43,12.43,0,0,0,1.19-5.4c0-3.37-.85-7.57-4.89-7.57Z"/><path class="cls-1" d="M194.19,28.29c0-.67.17-3.53-1-3.53-.51,0-1,.33-1.68.33-1.68,0-2.2-1.35-2.2-2.86,0-1.86.85-3.54,4.72-3.54a18,18,0,0,0,3.21.51,25.45,25.45,0,0,0,3.53-.51c1.68,0,1.35,1.52,1.35,2.86V33.68c0,1,0,2.86.67,3.88a3.51,3.51,0,0,0,2.87,1.51,4.22,4.22,0,0,0,3.7-2,9.53,9.53,0,0,0,1.18-5.22V28.29c0-.67.17-3.53-1-3.53-.51,0-1,.33-1.69.33-1.68,0-2.18-1.35-2.18-2.86,0-1.86.83-3.54,4.37-3.54a18,18,0,0,0,3.2.51,25.37,25.37,0,0,0,3.54-.51c1.85,0,1.69,1.18,1.69,2.52V35.7c0,.68-.17,3.54.84,3.54.5,0,1-.34,1.68-.34,1.68,0,2.36,1.35,2.36,2.87,0,2-1,3.53-3,3.53-1.35,0-2.53-.5-3.71-.5-1,0-2.19.5-3.2.5-1.85,0-1.85-1.68-1.85-2.7v-1C209.69,44.46,206,46,202.62,46c-2.7,0-5.73-1-7.25-3.21-1.35-2.18-1.18-5.21-1.18-7.74V28.29Z"/><path class="cls-1" d="M230.23,28.29c0-.67.17-3.53-1-3.53-.5,0-1,.33-1.68.33-1.69,0-2.19-1.35-2.19-2.86,0-1.86.84-3.54,2.53-3.54,1.51.17,2.52.51,3.54.51a23.14,23.14,0,0,0,3.36-.51c1.52,0,1.52,1,1.52,2.19v3.88a8.06,8.06,0,0,1,8.42-6.57,6.44,6.44,0,0,1,6.57,6.4c0,2.52-1.52,5.05-4.38,5.05a3.41,3.41,0,0,1-3.54-3.37,4.92,4.92,0,0,1,.67-2c-5.72-.34-5.89,7.41-5.89,11.45,0,.68-.17,3.54,1,3.54.51,0,1-.34,1.69-.34,1.68,0,2.18,1.35,2.18,2.87,0,2-.84,3.53-2.52,3.53-2.87,0-4.89-.5-6.91-.5-1.85,0-3.87.5-5.72.5-1.69,0-2.53-1.51-2.53-3.53,0-1.52.5-2.87,2.19-2.87.67,0,1.18.34,1.68.34,1.18,0,1-2.86,1-3.54V28.29Z"/><path class="cls-1" d="M379.46,31.49a1.78,1.78,0,0,1-.51,1L351.16,60.12c-1,1.18-1.68.51-1.35-.33a29.08,29.08,0,0,0,2.69-6.24c1.52-4.88,1.52-8.92.85-11.28a9.25,9.25,0,0,0-9.09-6.73,9.44,9.44,0,0,0-9.6,9.42c.17,1.69,0,4.21,2.69,6.57a4.45,4.45,0,0,0,4.38,1c.51,0,1.52-.67,1.52,1,0,1.86-1.69,4.22-2.7,5.39a16,16,0,0,1-10.27,3.88,12.93,12.93,0,0,1-9.77-4.55A23.45,23.45,0,0,1,316,49.35a51.69,51.69,0,0,1-2.69-17.86A57.09,57.09,0,0,1,316,13.81a27.84,27.84,0,0,1,4.55-9.27A12.69,12.69,0,0,1,330.28,0a15.09,15.09,0,0,1,10.27,4c1,1,2.7,3.37,2.7,5.39,0,1.51-1,.84-1.52.84a4.48,4.48,0,0,0-4.38,1c-2.69,2.36-2.52,5-2.69,6.56a9.35,9.35,0,0,0,9.6,9.44,9.08,9.08,0,0,0,9.09-6.73c.67-2.36.67-6.4-.85-11.12A31.26,31.26,0,0,0,349.81,3c-.33-.67.34-1.51,1.35-.34L379,30.31a1.87,1.87,0,0,1,.51,1.18Z"/><path class="cls-2" d="M277.39,31.16a1.7,1.7,0,0,0,.68,1.17l29.47,28.3c.84.67,1,0,.84-.51-.17-.33-.34-.5-1.17-1.85-8.09-11.62-7.93-27.11-7.93-27.11s-.16-15.5,7.93-26.95a10.67,10.67,0,0,0,1.17-2c.17-.5,0-1.17-.84-.5L278.07,30a1.71,1.71,0,0,0-.68,1.18Z"/></g></g></svg>