<?xml version="1.0" encoding="utf-8"?>
<!-- Generator: Adobe Illustrator 22.0.1, SVG Export Plug-In . SVG Version: 6.00 Build 0)  -->
<svg version="1.1" id="Calque_1" xmlns="http://www.w3.org/2000/svg" xmlns:xlink="http://www.w3.org/1999/xlink" x="0px" y="0px"
	 viewBox="0 0 172 38" style="enable-background:new 0 0 172 38;" xml:space="preserve">
<style type="text/css">
	.st0{fill:#82CCDD;}
	.st1{fill:#1E3799;}
	.st2{clip-path:url(#SVGID_2_);}
	.st3{clip-path:url(#SVGID_4_);fill:#82CCDD;}
</style>
<g>
	<g>
		<path id="XMLID_299_" class="st0" d="M171.6,11.2c0.1,0,0.2,0,0.2,0.1c0.1,0,0.1,0.1,0.1,0.2V12c0,0.2-0.1,0.4-0.2,0.6
			c-0.1,0.2-0.3,0.2-0.5,0.2h-1.6v5.7h1.8c0.1,0,0.2,0,0.2,0.1c0.1,0,0.1,0.1,0.1,0.2v0.5c0,0.2-0.1,0.4-0.2,0.6
			c-0.1,0.2-0.3,0.2-0.5,0.2h-1.4v5.5h1.6c0.2,0,0.4,0.1,0.5,0.2c0.1,0.2,0.2,0.3,0.2,0.6v0.5c0,0.1,0,0.2-0.1,0.2s-0.1,0.1-0.2,0.1
			h-3.5c-0.1,0-0.2,0-0.2-0.1s-0.1-0.1-0.1-0.2v-15c0-0.1,0-0.2,0.1-0.2c0-0.1,0.1-0.1,0.2-0.1L171.6,11.2L171.6,11.2z"/>
		<path id="XMLID_335_" class="st1" d="M54.2,11.2c0.4,0,0.7,0.1,1,0.2c0.3,0.1,0.6,0.3,0.8,0.5s0.4,0.4,0.5,0.7s0.2,0.6,0.2,1v4.8
			c0,0.4-0.1,0.7-0.2,1c-0.2,0.2-0.4,0.4-0.6,0.6c0.3,0.2,0.5,0.3,0.6,0.6c0.2,0.2,0.2,0.6,0.2,0.9v5.2c0,0.1,0,0.2-0.1,0.2
			c0,0.1-0.1,0.1-0.2,0.1h-0.7c-0.2,0-0.5-0.1-0.6-0.2c-0.1-0.2-0.2-0.3-0.2-0.6v-4.7c0-0.2-0.1-0.4-0.2-0.6
			c-0.1-0.2-0.3-0.2-0.6-0.2h-0.8v5.5c0,0.2-0.1,0.4-0.2,0.6S52.8,27,52.5,27h-0.7c-0.1,0-0.2,0-0.2-0.1s-0.1-0.1-0.1-0.2V11.5
			c0-0.1,0-0.2,0.1-0.2c0-0.1,0.1-0.1,0.2-0.1H54.2L54.2,11.2z M53.4,12.7v6.4h0.8c0.3,0,0.5-0.1,0.6-0.2s0.2-0.3,0.2-0.6v-4.8
			c0-0.2-0.1-0.4-0.2-0.6c-0.1-0.2-0.3-0.2-0.6-0.2L53.4,12.7L53.4,12.7z"/>
		<path id="XMLID_333_" class="st1" d="M65.9,11.2c0.1,0,0.2,0,0.2,0.1c0.1,0,0.1,0.1,0.1,0.2V12c0,0.2-0.1,0.4-0.2,0.6
			c-0.1,0.2-0.3,0.2-0.5,0.2h-1.6v5.7h1.8c0.1,0,0.2,0,0.2,0.1c0.1,0,0.1,0.1,0.1,0.2v0.5c0,0.2-0.1,0.4-0.2,0.6s-0.3,0.2-0.5,0.2
			h-1.4v5.5h1.6c0.2,0,0.4,0.1,0.5,0.2c0.1,0.2,0.2,0.3,0.2,0.6v0.5c0,0.1,0,0.2-0.1,0.2s-0.1,0.1-0.2,0.1h-3.5
			c-0.1,0-0.2,0-0.2-0.1s-0.1-0.1-0.1-0.2v-15c0-0.1,0-0.2,0.1-0.2c0-0.1,0.1-0.1,0.2-0.1L65.9,11.2L65.9,11.2z"/>
		<path id="XMLID_331_" class="st1" d="M76.3,13.9c0.1-0.6,0.1-1.1,0.2-1.4c0.1-0.4,0.2-0.6,0.3-0.8c0.1-0.2,0.2-0.3,0.3-0.4
			s0.2-0.1,0.4-0.1h1c0.1,0,0.2,0,0.2,0.1s0.1,0.1,0.1,0.2v15.1c0,0.1,0,0.2-0.1,0.2c0,0.1-0.1,0.1-0.2,0.1h-0.7
			c-0.2,0-0.5-0.1-0.6-0.2C77,26.5,77,26.3,77,26.1L77.4,16l-1.2,10.2c0,0.2-0.1,0.3-0.3,0.5s-0.4,0.2-0.6,0.2l0,0
			c-0.2,0-0.4-0.1-0.6-0.2s-0.3-0.3-0.3-0.5L73.1,16l0.4,10.1c0,0.2-0.1,0.4-0.2,0.6s-0.3,0.2-0.6,0.2H72c-0.1,0-0.2,0-0.2-0.1
			s-0.1-0.1-0.1-0.2V11.5c0-0.1,0-0.2,0.1-0.2c0-0.1,0.1-0.1,0.2-0.1h0.9c0.1,0,0.2,0,0.4,0.1c0.1,0.1,0.2,0.2,0.3,0.3
			c0.1,0.2,0.2,0.5,0.3,0.8c0.1,0.4,0.2,0.8,0.2,1.5l1.1,8.3L76.3,13.9z"/>
		<path id="XMLID_328_" class="st1" d="M87.3,11.2c0.4,0,0.7,0.1,1,0.2c0.3,0.1,0.6,0.2,0.8,0.5c0.2,0.2,0.4,0.4,0.5,0.7
			s0.2,0.6,0.2,1v5.6c0,0.7-0.2,1.3-0.7,1.7c-0.4,0.4-1.1,0.6-1.9,0.6h-0.8V26c0,0.2-0.1,0.4-0.2,0.6s-0.3,0.2-0.6,0.2h-0.7
			c-0.1,0-0.2,0-0.2-0.1s-0.1-0.1-0.1-0.2v-15c0-0.1,0-0.2,0.1-0.2c0-0.1,0.1-0.1,0.2-0.1H87.3L87.3,11.2z M86.6,12.7v7.2h0.8
			c0.3,0,0.5-0.1,0.6-0.2c0.1-0.2,0.2-0.3,0.2-0.6v-5.6c0-0.2-0.1-0.4-0.2-0.6c-0.1-0.2-0.3-0.2-0.6-0.2L86.6,12.7L86.6,12.7z"/>
		<path id="XMLID_326_" class="st1" d="M96.1,26.8c-0.1,0-0.2,0-0.2-0.1s-0.1-0.1-0.1-0.2v-15c0-0.1,0-0.2,0.1-0.2
			c0-0.1,0.1-0.1,0.2-0.1h0.7c0.2,0,0.4,0.1,0.6,0.2c0.2,0.1,0.2,0.3,0.2,0.5v13.4h1.6c0.2,0,0.4,0.1,0.5,0.2
			c0.1,0.2,0.2,0.3,0.2,0.6v0.5c0,0.1,0,0.2-0.1,0.2s-0.1,0.1-0.2,0.1L96.1,26.8L96.1,26.8z"/>
		<path id="XMLID_323_" class="st1" d="M108.3,11.2c0.1,0,0.2,0,0.2,0.1s0.1,0.1,0.1,0.2l1.4,15c0,0.1,0,0.2-0.1,0.2
			c-0.1,0.1-0.2,0.1-0.3,0.1H109c-0.2,0-0.4-0.1-0.6-0.2s-0.2-0.3-0.2-0.5l-0.1-2.1H107l-0.1,2.1c0,0.2-0.1,0.3-0.2,0.5
			c-0.2,0.1-0.3,0.2-0.6,0.2h-0.6c-0.1,0-0.2,0-0.3-0.1c-0.1-0.1-0.1-0.2-0.1-0.2l1.4-15c0-0.1,0-0.1,0.1-0.2c0-0.1,0.1-0.1,0.2-0.1
			H108.3z M107.1,22.5h0.9l-0.5-7.5L107.1,22.5z"/>
		<path id="XMLID_321_" class="st0" d="M119.5,11.2c0.1,0,0.2,0,0.2,0.1c0.1,0,0.1,0.1,0.1,0.2V12c0,0.2-0.1,0.4-0.2,0.6
			c-0.1,0.2-0.3,0.2-0.5,0.2h-1.6v5.7h1.8c0.1,0,0.2,0,0.2,0.1c0.1,0,0.1,0.1,0.1,0.2v0.5c0,0.2-0.1,0.4-0.2,0.6s-0.3,0.2-0.5,0.2
			h-1.4V26c0,0.2-0.1,0.4-0.2,0.6s-0.3,0.2-0.6,0.2H116c-0.1,0-0.2,0-0.2-0.1s-0.1-0.1-0.1-0.2v-15c0-0.1,0-0.2,0.1-0.2
			c0-0.1,0.1-0.1,0.2-0.1C115.9,11.2,119.5,11.2,119.5,11.2z"/>
		<path id="XMLID_318_" class="st0" d="M127.9,11.2c0.4,0,0.7,0.1,1,0.2c0.3,0.1,0.6,0.3,0.8,0.5s0.4,0.4,0.5,0.7s0.2,0.6,0.2,1v4.8
			c0,0.4-0.1,0.7-0.2,1c-0.1,0.3-0.4,0.4-0.6,0.6c0.3,0.2,0.5,0.3,0.6,0.6c0.2,0.2,0.2,0.6,0.2,0.9v5.2c0,0.1,0,0.2-0.1,0.2
			c0,0-0.1,0.1-0.2,0.1h-0.7c-0.2,0-0.5-0.1-0.6-0.2c-0.1-0.2-0.2-0.3-0.2-0.6v-4.7c0-0.2-0.1-0.4-0.2-0.6c-0.1-0.2-0.3-0.2-0.6-0.2
			H127v5.5c0,0.2-0.1,0.4-0.2,0.6s-0.3,0.2-0.6,0.2h-0.7c-0.1,0-0.2,0-0.2-0.1s-0.1-0.1-0.1-0.2V11.5c0-0.1,0-0.2,0.1-0.2
			c0-0.1,0.1-0.1,0.2-0.1H127.9L127.9,11.2z M127.1,12.7v6.4h0.8c0.3,0,0.5-0.1,0.6-0.2s0.2-0.3,0.2-0.6v-4.8c0-0.2-0.1-0.4-0.2-0.6
			c-0.1-0.2-0.3-0.2-0.6-0.2L127.1,12.7L127.1,12.7z"/>
		<path id="XMLID_313_" class="st0" d="M139.2,11.2c0.1,0,0.2,0,0.2,0.1s0.1,0.1,0.1,0.2l1.4,15c0,0.1,0,0.2-0.1,0.2
			c-0.1,0.1-0.2,0.1-0.3,0.1H140c-0.2,0-0.4-0.1-0.6-0.2c-0.2-0.1-0.2-0.3-0.2-0.5L139,24h-1.1l-0.1,2.1c0,0.2-0.1,0.3-0.2,0.5
			c-0.2,0.1-0.3,0.2-0.6,0.2h-0.6c-0.1,0-0.2,0-0.3-0.1s-0.1-0.2-0.1-0.2l1.4-15c0-0.1,0-0.1,0.1-0.2c0-0.1,0.1-0.1,0.2-0.1H139.2z
			 M138,22.5h0.9l-0.5-7.5L138,22.5z"/>
		<path id="XMLID_309_" class="st0" d="M151.3,11.2c0.1,0,0.2,0,0.2,0.1s0.1,0.1,0.1,0.2v15.1c0,0.1,0,0.2-0.1,0.2
			c0,0.1-0.1,0.1-0.2,0.1h-0.7c-0.2,0-0.4-0.1-0.5-0.2s-0.2-0.2-0.2-0.4c0-0.1,0-0.3-0.1-0.6c-0.1-0.3-0.2-0.7-0.2-1.1
			c-0.1-0.4-0.2-0.9-0.3-1.5s-0.2-1.1-0.4-1.6c-0.1-0.6-0.2-1.1-0.3-1.6s-0.2-1-0.3-1.5l0.1,7.8c0,0.2-0.1,0.4-0.2,0.6
			c-0.1,0.2-0.3,0.2-0.6,0.2h-0.7c-0.1,0-0.2,0-0.2-0.1s-0.1-0.1-0.1-0.2V11.5c0-0.1,0-0.2,0.1-0.2c0-0.1,0.1-0.1,0.2-0.1h0.7
			c0.2,0,0.4,0.1,0.5,0.2c0.1,0.1,0.2,0.3,0.2,0.5s0.1,0.4,0.1,0.8c0.1,0.4,0.2,0.8,0.2,1.3c0.1,0.5,0.2,1,0.3,1.6s0.2,1.2,0.3,1.8
			c0.1,0.6,0.2,1.1,0.3,1.7c0.1,0.5,0.2,1,0.3,1.4l-0.1-8.4c0-0.2,0.1-0.4,0.2-0.5c0.2-0.1,0.3-0.2,0.6-0.2L151.3,11.2L151.3,11.2z"
			/>
		<path id="XMLID_304_" class="st0" d="M160.9,20.7c0-0.2,0.1-0.4,0.2-0.6c0.1-0.2,0.3-0.2,0.6-0.2h0.8c0.1,0,0.2,0,0.2,0.1
			s0.1,0.1,0.1,0.2v4.6c0,0.7-0.2,1.3-0.7,1.7c-0.4,0.4-1.1,0.6-1.9,0.6c-0.4,0-0.7-0.1-1-0.2s-0.6-0.2-0.8-0.5
			c-0.2-0.2-0.4-0.4-0.5-0.7c-0.1-0.3-0.2-0.6-0.2-1V13.3c0-0.7,0.2-1.3,0.7-1.7c0.4-0.4,1.1-0.6,1.9-0.6c0.4,0,0.7,0.1,1,0.2
			c0.3,0.1,0.6,0.2,0.8,0.5c0.2,0.2,0.4,0.4,0.5,0.7s0.2,0.6,0.2,1v4.7c0,0.1,0,0.2-0.1,0.2c0,0-0.1,0.1-0.2,0.1h-0.7
			c-0.2,0-0.5-0.1-0.6-0.2s-0.2-0.3-0.2-0.6v-4.3c0-0.2-0.1-0.4-0.2-0.6c-0.1-0.2-0.3-0.2-0.6-0.2c-0.2,0-0.5,0.1-0.6,0.2
			c-0.1,0.1-0.2,0.3-0.2,0.6v11.5c0,0.2,0.1,0.4,0.2,0.6c0.1,0.2,0.3,0.2,0.6,0.2c0.2,0,0.5-0.1,0.6-0.2s0.2-0.3,0.2-0.6v-4.1
			C161,20.7,160.9,20.7,160.9,20.7z"/>
	</g>
	<g>
		<path class="st1" d="M15.3,37.4c-1.4,0-2.4-1-2.4-2.3v-9.4H3.2c-1.4,0-2.4-1-2.4-2.3v-8.7c0-1.3,1.1-2.3,2.4-2.3h9.7V2.9
			c0-1.3,1.1-2.3,2.4-2.3h9.5c1.4,0,2.4,1,2.4,2.3v9.4h10c0.7,0,1.3,0.2,1.7,0.7c0.5,0.4,0.7,1,0.7,1.6v8.7c0,1.3-1.1,2.3-2.4,2.3
			h-10V35c0,1.3-1.1,2.3-2.4,2.3L15.3,37.4L15.3,37.4z M15.3,2.1c-0.5,0-0.8,0.3-0.8,0.8v9.6c0,0.7-0.6,1.3-1.4,1.3H3.2
			c-0.5,0-0.8,0.3-0.8,0.8v8.7c0,0.4,0.4,0.8,0.8,0.8h9.9c0.8,0,1.4,0.6,1.4,1.3V35c0,0.4,0.4,0.8,0.8,0.8h9.5
			c0.5,0,0.8-0.3,0.8-0.8v-9.6c0-0.7,0.6-1.3,1.4-1.3h10.2c0.5,0,0.8-0.3,0.8-0.8v-8.7c0-0.2-0.1-0.4-0.2-0.5
			c-0.2-0.2-0.4-0.2-0.6-0.2H27.1c-0.8,0-1.4-0.6-1.4-1.3V2.9c0-0.4-0.4-0.8-0.8-0.8C24.9,2.1,15.3,2.1,15.3,2.1z"/>
		<g>
			<g>
				<g>
					<g>
						<g>
							<defs>
								<rect id="SVGID_1_" x="0.2" width="40.3" height="38"/>
							</defs>
							<clipPath id="SVGID_2_">
								<use xlink:href="#SVGID_1_"  style="overflow:visible;"/>
							</clipPath>
							<g class="st2">
								<g id="XMLID_92_">
									<g>
										<g>
											<g>
												<defs>
													<rect id="SVGID_3_" x="0.2" y="0.1" width="40.1" height="37.8"/>
												</defs>
												<clipPath id="SVGID_4_">
													<use xlink:href="#SVGID_3_"  style="overflow:visible;"/>
												</clipPath>
												<path class="st3" d="M35.8,9.6c0.6-0.1,1.3,0,1.8,0.4s0.9,0.9,1,1.5l1.6,8.6c0.2,1.3-0.7,2.5-2,2.7l-9.8,1.6l1.7,9.3
													c0.2,1.3-0.7,2.5-2,2.7l-9.4,1.5c-1.3,0.2-2.6-0.6-2.8-1.9l-1.7-9.3l-9.6,1.6c-1.3,0.2-2.6-0.6-2.8-1.9l-1.6-8.6
													c-0.2-1.3,0.7-2.5,2-2.7l9.6-1.6l-1.7-9.3c-0.2-1.3,0.7-2.5,2-2.7L21.5,0c1.3-0.2,2.6,0.6,2.8,1.9l1.7,9.3 M12.4,3.2
													c-0.5,0.1-0.7,0.5-0.7,0.9l1.7,9.5c0.1,0.7-0.4,1.4-1.2,1.6l-9.8,1.6c-0.5,0.1-0.7,0.5-0.7,0.9l1.6,8.6
													c0.1,0.4,0.5,0.7,0.9,0.6l9.8-1.6c0.8-0.1,1.5,0.4,1.7,1.1l1.7,9.5c0.1,0.4,0.5,0.7,0.9,0.6l9.4-1.5
													c0.5-0.1,0.7-0.5,0.7-0.9l-1.7-9.5c-0.1-0.7,0.4-1.4,1.2-1.6l10-1.6c0.5-0.1,0.7-0.5,0.7-0.9L37,11.9
													c0-0.2-0.2-0.4-0.3-0.5c-0.2-0.1-0.4-0.2-0.6-0.1l-10,1.6c-0.8,0.1-1.5-0.4-1.7-1.1l-1.7-9.5c-0.1-0.4-0.5-0.7-0.9-0.6
													L12.4,3.2z"/>
											</g>
										</g>
									</g>
								</g>
							</g>
						</g>
					</g>
				</g>
			</g>
		</g>
	</g>
</g>
</svg>
